<?xml version="1.0" standalone="no"?>
<!DOCTYPE svg PUBLIC "-//W3C//DTD SVG 20010904//EN"
 "http://www.w3.org/TR/2001/REC-SVG-20010904/DTD/svg10.dtd">
<svg version="1.0" xmlns="http://www.w3.org/2000/svg"
 width="500.000000pt" height="500.000000pt" viewBox="0 0 500.000000 500.000000"
 preserveAspectRatio="xMidYMid meet">

<g transform="translate(0.000000,500.000000) scale(0.100000,-0.100000)"
fill="#2E856E" stroke="none">
<path d="M0 2500 l0 -2500 2500 0 2500 0 0 2500 0 2500 -2500 0 -2500 0 0
-2500z m2504 1440 c-15 -44 -32 -79 -37 -77 -5 1 -20 29 -32 60 -33 79 -38 97
-28 97 5 0 20 -29 33 -65 13 -36 27 -61 31 -57 4 4 14 32 24 62 20 64 25 73
32 66 3 -3 -7 -41 -23 -86z m-164 71 c0 -5 -18 -11 -41 -15 -32 -5 -40 -10
-35 -22 3 -9 6 -20 6 -25 0 -5 19 -10 43 -10 l42 -1 -43 -11 c-31 -7 -41 -14
-37 -24 3 -8 5 -22 5 -30 0 -13 8 -14 48 -8 30 4 43 3 37 -3 -14 -13 -93 -24
-99 -14 -3 5 -8 42 -12 84 l-7 77 39 4 c22 2 42 4 47 5 4 1 7 -2 7 -7z m251
-131 c-8 -21 -10 -14 -10 35 -1 87 13 128 17 50 2 -34 -2 -72 -7 -85z m169
119 c11 -8 3 -9 -32 -5 -47 6 -48 5 -48 -22 0 -24 6 -30 38 -40 l37 -11 -42 2
c-42 2 -43 2 -43 -30 0 -29 3 -33 28 -33 15 0 34 -5 42 -10 12 -8 11 -10 -6
-10 -12 0 -36 3 -54 6 l-32 7 6 56 c12 97 14 101 55 101 20 0 43 -5 51 -11z
m87 -93 l-6 -71 40 64 c49 75 64 71 57 -18 -2 -34 -4 -61 -3 -61 1 0 19 25 39
56 21 31 40 53 43 50 7 -7 -76 -136 -88 -136 -4 0 -9 30 -11 67 l-3 68 -34
-53 c-18 -28 -37 -52 -42 -52 -5 0 -9 39 -9 86 0 61 3 83 11 78 8 -5 10 -30 6
-78z m-669 62 c15 -15 16 -54 2 -63 -6 -4 1 -20 16 -41 15 -19 21 -34 15 -34
-6 0 -20 13 -31 28 -16 22 -28 28 -46 24 -13 -2 -24 -5 -24 -6 0 -1 4 -16 9
-34 6 -18 6 -32 1 -32 -5 0 -14 19 -20 43 -6 23 -15 57 -20 75 -6 23 -5 34 3
37 7 2 19 6 27 8 27 9 56 7 68 -5z m-248 -67 c0 -5 -16 -15 -35 -21 -37 -12
-41 -20 -25 -51 10 -18 13 -18 40 -4 34 17 40 18 40 6 0 -5 -13 -14 -30 -21
-33 -13 -35 -21 -20 -51 10 -18 13 -18 47 -4 51 22 53 11 3 -15 -23 -12 -43
-20 -45 -18 -8 9 -65 129 -65 137 0 6 17 19 38 30 42 23 52 25 52 12z m1288
-67 c12 -8 22 -20 22 -25 0 -5 -13 0 -29 12 -54 40 -85 -5 -36 -51 14 -13 25
-31 25 -40 0 -44 -63 -54 -100 -15 -29 31 -19 32 20 4 53 -40 84 5 35 51 -14
13 -25 31 -25 40 0 39 48 52 88 24z m-1453 -20 c-11 -8 -26 -19 -33 -23 -11
-6 -11 -13 -1 -34 l12 -27 35 20 c19 12 37 18 41 14 3 -4 0 -9 -6 -11 -7 -3
-23 -13 -35 -22 -21 -18 -22 -19 -4 -46 10 -15 15 -29 12 -33 -3 -3 -7 -3 -9
-1 -11 13 -77 128 -77 133 0 8 62 46 75 46 6 -1 1 -8 -10 -16z m1505 -109
c-40 -61 -59 -82 -47 -52 11 29 79 128 84 123 3 -3 -13 -35 -37 -71z m187 -39
c6 -9 0 -7 -43 11 -7 2 -31 -21 -55 -51 -24 -31 -45 -52 -47 -46 -2 6 15 32
37 59 45 53 49 66 26 75 -8 3 -15 10 -15 16 0 11 86 -46 97 -64z m-1754 -14
c43 -26 45 -40 3 -21 -23 11 -29 9 -50 -10 -20 -19 -23 -28 -16 -47 6 -15 6
-24 0 -24 -10 0 -50 124 -50 154 0 19 -1 19 113 -52z m-193 -32 c0 -5 -4 -10
-10 -10 -13 0 -50 -37 -50 -50 0 -5 14 -25 31 -45 40 -45 72 -46 100 -2 18 28
20 29 17 8 -2 -13 -15 -33 -30 -44 -24 -18 -30 -18 -58 -7 -69 28 -92 101 -44
139 29 23 44 27 44 11z m2035 -30 c37 -39 24 -52 -15 -15 -24 23 -32 26 -45
15 -21 -18 -19 -33 10 -60 14 -13 23 -26 20 -28 -3 -3 -19 7 -35 23 l-30 29
-22 -22 -22 -22 34 -35 c19 -19 29 -35 24 -35 -6 0 -25 16 -44 35 l-34 35 54
55 c30 30 59 55 65 55 6 0 24 -13 40 -30z m-1675 -459 c0 -107 -8 -135 -36
-124 -19 7 -20 229 -1 236 32 11 37 -5 37 -112z m658 -455 l2 -569 558 4 557
4 3 -26 3 -26 -587 -6 c-323 -4 -839 -7 -1146 -7 -498 0 -559 2 -565 16 -3 8
-1 20 5 26 7 7 199 12 561 16 l551 5 0 562 c0 309 3 565 7 569 4 4 16 6 28 4
20 -3 20 -8 23 -572z m-820 424 c3 -85 -7 -111 -35 -88 -17 14 -18 149 -1 166
24 24 33 4 36 -78z m311 76 c7 -9 11 -42 9 -88 -3 -67 -5 -73 -25 -76 -22 -3
-23 -1 -23 81 0 97 10 118 39 83z m1169 -62 c61 -30 86 -59 109 -126 10 -27
26 -51 36 -54 50 -16 127 -114 127 -162 0 -11 9 -22 20 -25 30 -8 42 -49 26
-94 -47 -130 -140 -331 -162 -350 -24 -22 -31 -23 -252 -23 -160 0 -234 4
-251 13 -18 9 -43 57 -103 195 -43 101 -78 194 -78 207 0 13 11 32 26 44 14
11 30 35 35 54 14 52 63 112 107 133 32 16 41 27 50 61 35 128 185 189 310
127z m-963 -279 c0 -139 0 -141 -33 -207 -21 -44 -51 -84 -88 -117 l-56 -51
67 0 c57 0 69 -3 90 -25 15 -15 25 -36 25 -54 0 -89 -7 -91 -405 -91 l-337 0
-29 29 c-31 31 -36 59 -17 94 21 40 40 46 133 47 l90 0 -30 18 c-30 19 -83 75
-118 126 -12 17 -27 26 -45 26 -101 1 -200 122 -190 235 l3 40 93 3 92 3 0 28
c0 15 3 31 7 34 4 4 173 6 377 5 l371 -3 0 -140z m439 -1109 c45 -19 53 -34
28 -58 -16 -16 -23 -18 -40 -9 -11 6 -41 11 -66 11 -41 0 -49 -4 -67 -32 -28
-46 -24 -158 8 -189 25 -26 87 -28 132 -5 28 15 31 15 45 -6 23 -33 21 -37
-30 -60 -68 -30 -153 -22 -194 17 -40 39 -53 86 -48 178 2 57 9 83 24 104 42
58 135 80 208 49z m-503 -25 c24 -25 29 -38 29 -80 0 -81 -51 -120 -157 -121
l-32 0 -3 -67 -3 -68 -32 -3 -33 -3 0 185 0 186 101 0 c98 0 101 -1 130 -29z
m179 -157 l0 -185 -32 3 -33 3 -3 183 -2 182 35 0 35 0 0 -186z m700 4 c37
-98 65 -180 62 -183 -3 -3 -20 -5 -38 -5 -30 0 -34 4 -49 50 l-17 51 -61 -3
-62 -3 -16 -45 c-15 -40 -20 -45 -48 -45 -17 0 -32 3 -33 7 -2 4 26 86 62 183
l65 176 34 -3 34 -3 67 -177z"/>
<path d="M2098 3955 c-7 -7 2 -54 12 -60 5 -3 20 -1 34 5 19 7 26 17 26 35 0
22 -4 25 -33 25 -19 0 -36 -2 -39 -5z"/>
<path d="M1614 3664 c10 -41 20 -47 39 -26 16 17 15 19 -15 36 l-31 19 7 -29z"/>
<path d="M3040 3087 c-67 -22 -113 -74 -124 -139 -6 -31 -12 -39 -41 -48 -32
-11 -105 -79 -105 -99 0 -5 -3 -16 -6 -25 -6 -14 27 -16 325 -16 l331 0 -15
37 c-21 51 -43 73 -92 95 -49 21 -82 13 -109 -27 -9 -14 -22 -25 -30 -25 -43
0 -10 73 44 98 20 9 38 17 40 18 1 1 -2 14 -8 30 -31 81 -129 128 -210 101z"/>
<path d="M2706 2701 c-3 -5 29 -89 72 -187 71 -165 79 -179 105 -182 17 -2 27
1 27 10 0 7 -19 93 -42 191 l-42 177 -57 0 c-32 0 -60 -4 -63 -9z"/>
<path d="M2919 2520 c43 -182 46 -190 69 -190 l25 0 -6 88 c-4 48 -10 133 -13
190 l-7 102 -57 0 -57 0 46 -190z"/>
<path d="M3047 2538 c6 -95 12 -181 12 -190 1 -13 9 -18 30 -18 l28 0 7 113
c4 61 9 147 13 190 l6 77 -54 0 -54 0 12 -172z"/>
<path d="M3186 2658 c-3 -29 -8 -105 -11 -168 -3 -63 -8 -125 -11 -138 -4 -20
-1 -23 23 -20 26 3 28 7 70 183 23 99 43 183 43 188 0 4 -24 7 -54 7 l-54 0
-6 -52z"/>
<path d="M3345 2688 c-33 -143 -77 -327 -81 -340 -4 -14 1 -18 24 -18 34 0 32
-4 123 213 33 77 59 146 59 153 0 10 -16 14 -60 14 -54 0 -60 -2 -65 -22z"/>
<path d="M1520 2839 c0 -104 12 -154 53 -221 58 -97 159 -152 278 -152 68 -1
84 3 145 34 82 42 146 114 169 192 9 30 15 90 15 145 l0 93 -330 0 -330 0 0
-91z"/>
<path d="M1330 2838 c0 -34 39 -106 69 -127 15 -11 40 -23 56 -27 27 -7 28 -6
22 26 -4 18 -7 59 -7 91 l0 59 -70 0 c-65 0 -70 -1 -70 -22z"/>
<path d="M1491 2396 c-9 -11 -10 -20 -1 -35 11 -21 16 -21 348 -19 l337 3 0
30 0 30 -336 3 c-284 2 -338 0 -348 -12z"/>
<path d="M2000 1614 l0 -57 46 7 c62 8 76 21 72 65 l-3 36 -57 3 -58 3 0 -57z"/>
<path d="M2921 1589 c-7 -22 -15 -47 -18 -55 -4 -10 4 -14 31 -14 40 0 43 7
25 61 -18 52 -25 53 -38 8z"/>
</g>
</svg>
